<mxfile host="app.diagrams.net" agent="Mozilla/5.0 (Windows NT 10.0; Win64; x64) AppleWebKit/537.36 (KHTML, like Gecko) Chrome/134.0.0.0 Safari/537.36" version="26.1.1">
  <diagram name="PÃ¡gina-1" id="PR3myymClLCdWMCuTPFN">
    <mxGraphModel dx="2327" dy="1965" grid="1" gridSize="10" guides="1" tooltips="1" connect="1" arrows="1" fold="1" page="1" pageScale="1" pageWidth="827" pageHeight="1169" math="0" shadow="0">
      <root>
        <mxCell id="0" />
        <mxCell id="1" parent="0" />
        <mxCell id="WbgwfRuo6jlhfHoJdEUF-26" value="" style="verticalLabelPosition=bottom;verticalAlign=top;html=1;shape=mxgraph.basic.rect;fillColor2=none;strokeWidth=1;size=20;indent=5;" vertex="1" parent="1">
          <mxGeometry x="-10" y="-40" width="820" height="520" as="geometry" />
        </mxCell>
        <mxCell id="WbgwfRuo6jlhfHoJdEUF-6" value="" style="rounded=0;whiteSpace=wrap;html=1;" vertex="1" parent="1">
          <mxGeometry x="40" y="30" width="120" height="160" as="geometry" />
        </mxCell>
        <mxCell id="WbgwfRuo6jlhfHoJdEUF-7" value="Customer" style="rounded=0;whiteSpace=wrap;html=1;" vertex="1" parent="1">
          <mxGeometry x="40" y="30" width="120" height="30" as="geometry" />
        </mxCell>
        <mxCell id="WbgwfRuo6jlhfHoJdEUF-8" value="id&lt;div&gt;email&lt;/div&gt;&lt;div&gt;nome&lt;/div&gt;&lt;div&gt;apelido&lt;/div&gt;&lt;div&gt;sexo&lt;/div&gt;&lt;div&gt;endereco&lt;/div&gt;&lt;div&gt;data_de_nasc&lt;/div&gt;&lt;div&gt;telefone&lt;/div&gt;" style="text;html=1;align=left;verticalAlign=middle;whiteSpace=wrap;rounded=0;" vertex="1" parent="1">
          <mxGeometry x="50" y="110" width="60" height="30" as="geometry" />
        </mxCell>
        <mxCell id="WbgwfRuo6jlhfHoJdEUF-9" value="" style="rounded=0;whiteSpace=wrap;html=1;" vertex="1" parent="1">
          <mxGeometry x="250" y="30" width="120" height="100" as="geometry" />
        </mxCell>
        <mxCell id="WbgwfRuo6jlhfHoJdEUF-10" value="Order" style="rounded=0;whiteSpace=wrap;html=1;" vertex="1" parent="1">
          <mxGeometry x="250" y="30" width="120" height="30" as="geometry" />
        </mxCell>
        <mxCell id="WbgwfRuo6jlhfHoJdEUF-11" value="id&lt;div&gt;data_de_venda&lt;/div&gt;&lt;div&gt;customer_id_seller&lt;/div&gt;&lt;div&gt;valor_total&lt;/div&gt;" style="text;html=1;align=left;verticalAlign=middle;whiteSpace=wrap;rounded=0;" vertex="1" parent="1">
          <mxGeometry x="260" y="80" width="60" height="30" as="geometry" />
        </mxCell>
        <mxCell id="WbgwfRuo6jlhfHoJdEUF-12" value="" style="rounded=0;whiteSpace=wrap;html=1;" vertex="1" parent="1">
          <mxGeometry x="450" y="30" width="120" height="90" as="geometry" />
        </mxCell>
        <mxCell id="WbgwfRuo6jlhfHoJdEUF-13" value="Order/Item" style="rounded=0;whiteSpace=wrap;html=1;" vertex="1" parent="1">
          <mxGeometry x="450" y="30" width="120" height="30" as="geometry" />
        </mxCell>
        <mxCell id="WbgwfRuo6jlhfHoJdEUF-14" value="id&lt;div&gt;order_id&lt;/div&gt;&lt;div&gt;item_id&lt;/div&gt;&lt;div&gt;&lt;br&gt;&lt;/div&gt;" style="text;html=1;align=left;verticalAlign=middle;whiteSpace=wrap;rounded=0;" vertex="1" parent="1">
          <mxGeometry x="460" y="80" width="60" height="30" as="geometry" />
        </mxCell>
        <mxCell id="WbgwfRuo6jlhfHoJdEUF-15" value="" style="rounded=0;whiteSpace=wrap;html=1;" vertex="1" parent="1">
          <mxGeometry x="640" y="150" width="120" height="110" as="geometry" />
        </mxCell>
        <mxCell id="WbgwfRuo6jlhfHoJdEUF-16" value="Item" style="rounded=0;whiteSpace=wrap;html=1;" vertex="1" parent="1">
          <mxGeometry x="640" y="150" width="120" height="30" as="geometry" />
        </mxCell>
        <mxCell id="WbgwfRuo6jlhfHoJdEUF-17" value="&lt;div&gt;id&lt;/div&gt;&lt;div&gt;status&lt;/div&gt;&lt;div&gt;data_de_baixa&lt;/div&gt;&lt;div&gt;preco&lt;/div&gt;&lt;div&gt;category_id&lt;/div&gt;" style="text;html=1;align=left;verticalAlign=middle;whiteSpace=wrap;rounded=0;" vertex="1" parent="1">
          <mxGeometry x="647" y="203" width="60" height="30" as="geometry" />
        </mxCell>
        <mxCell id="WbgwfRuo6jlhfHoJdEUF-18" value="" style="rounded=0;whiteSpace=wrap;html=1;" vertex="1" parent="1">
          <mxGeometry x="580" y="320" width="130" height="110" as="geometry" />
        </mxCell>
        <mxCell id="WbgwfRuo6jlhfHoJdEUF-19" value="Category" style="rounded=0;whiteSpace=wrap;html=1;" vertex="1" parent="1">
          <mxGeometry x="580" y="320" width="130" height="30" as="geometry" />
        </mxCell>
        <mxCell id="WbgwfRuo6jlhfHoJdEUF-20" value="id&lt;div&gt;descricao&lt;/div&gt;&lt;div&gt;nome&lt;/div&gt;&lt;div&gt;superior_category_id&lt;/div&gt;" style="text;html=1;align=left;verticalAlign=middle;whiteSpace=wrap;rounded=0;" vertex="1" parent="1">
          <mxGeometry x="587" y="373" width="60" height="30" as="geometry" />
        </mxCell>
        <mxCell id="WbgwfRuo6jlhfHoJdEUF-21" value="" style="edgeStyle=entityRelationEdgeStyle;fontSize=12;html=1;endArrow=ERoneToMany;rounded=0;exitX=1;exitY=0.25;exitDx=0;exitDy=0;entryX=0;entryY=0.25;entryDx=0;entryDy=0;" edge="1" parent="1" source="WbgwfRuo6jlhfHoJdEUF-6" target="WbgwfRuo6jlhfHoJdEUF-9">
          <mxGeometry width="100" height="100" relative="1" as="geometry">
            <mxPoint x="170" y="150" as="sourcePoint" />
            <mxPoint x="270" y="50" as="targetPoint" />
          </mxGeometry>
        </mxCell>
        <mxCell id="WbgwfRuo6jlhfHoJdEUF-22" value="" style="edgeStyle=entityRelationEdgeStyle;fontSize=12;html=1;endArrow=ERoneToMany;rounded=0;exitX=1;exitY=0.25;exitDx=0;exitDy=0;entryX=0;entryY=0.25;entryDx=0;entryDy=0;" edge="1" parent="1" source="WbgwfRuo6jlhfHoJdEUF-9" target="WbgwfRuo6jlhfHoJdEUF-12">
          <mxGeometry width="100" height="100" relative="1" as="geometry">
            <mxPoint x="380" y="80" as="sourcePoint" />
            <mxPoint x="480" y="-20" as="targetPoint" />
          </mxGeometry>
        </mxCell>
        <mxCell id="WbgwfRuo6jlhfHoJdEUF-23" value="" style="edgeStyle=entityRelationEdgeStyle;fontSize=12;html=1;endArrow=ERoneToMany;rounded=0;exitX=0.5;exitY=0;exitDx=0;exitDy=0;entryX=1;entryY=0.5;entryDx=0;entryDy=0;" edge="1" parent="1" source="WbgwfRuo6jlhfHoJdEUF-16" target="WbgwfRuo6jlhfHoJdEUF-13">
          <mxGeometry width="100" height="100" relative="1" as="geometry">
            <mxPoint x="640" y="140" as="sourcePoint" />
            <mxPoint x="740" y="40" as="targetPoint" />
            <Array as="points">
              <mxPoint x="650" y="100" />
              <mxPoint x="670" y="60" />
              <mxPoint x="640" y="100" />
              <mxPoint x="660" y="80" />
            </Array>
          </mxGeometry>
        </mxCell>
        <mxCell id="WbgwfRuo6jlhfHoJdEUF-25" value="" style="edgeStyle=entityRelationEdgeStyle;fontSize=12;html=1;endArrow=ERoneToMany;rounded=0;entryX=0;entryY=0.25;entryDx=0;entryDy=0;exitX=0;exitY=0;exitDx=0;exitDy=0;" edge="1" parent="1" source="WbgwfRuo6jlhfHoJdEUF-19" target="WbgwfRuo6jlhfHoJdEUF-15">
          <mxGeometry width="100" height="100" relative="1" as="geometry">
            <mxPoint x="532" y="462.5" as="sourcePoint" />
            <mxPoint x="570" y="220" as="targetPoint" />
            <Array as="points">
              <mxPoint x="480" y="395" />
            </Array>
          </mxGeometry>
        </mxCell>
      </root>
    </mxGraphModel>
  </diagram>
</mxfile>
